<svg xmlns="http://www.w3.org/2000/svg" width="44.204" height="44.204" viewBox="0 0 44.204 44.204">
  <g id="Group_75" data-name="Group 75" transform="translate(626.862 -2938.386)">
    <path id="Path_20" data-name="Path 20" d="M-587.838,2938.386h-33.844a5.186,5.186,0,0,0-5.18,5.18v33.844a5.186,5.186,0,0,0,5.18,5.18h33.844a5.186,5.186,0,0,0,5.18-5.18v-33.844A5.186,5.186,0,0,0-587.838,2938.386Zm1.726,39.024a1.728,1.728,0,0,1-1.726,1.727h-9.843v-14.073h5.335l.881-5.353h-6.216V2956a2.546,2.546,0,0,1,2.59-2.59h3.54v-5.353h-3.54a7.942,7.942,0,0,0-7.941,7.958v3.7h-5.182v5.353h5.182v14.073h-18.65a1.729,1.729,0,0,1-1.727-1.727v-33.844a1.728,1.728,0,0,1,1.727-1.726h33.844a1.728,1.728,0,0,1,1.726,1.726Z" fill="#fff"/>
  </g>
</svg>
