<svg xmlns="http://www.w3.org/2000/svg" width="44.204" height="44.204" viewBox="0 0 44.204 44.204">
  <g id="Group_154" data-name="Group 154" transform="translate(398.204 -2940.386)">
    <path id="Path_18" data-name="Path 18" d="M-367.169,2940.386h-17.867a13.184,13.184,0,0,0-13.168,13.169v17.867a13.183,13.183,0,0,0,13.168,13.168h17.867A13.183,13.183,0,0,0-354,2971.422v-17.867A13.184,13.184,0,0,0-367.169,2940.386Zm8.722,31.036a8.722,8.722,0,0,1-8.722,8.721h-17.867a8.722,8.722,0,0,1-8.721-8.721v-17.867a8.722,8.722,0,0,1,8.721-8.722h17.867a8.722,8.722,0,0,1,8.722,8.722v17.867Z" fill="#fff"/>
    <path id="Path_19" data-name="Path 19" d="M-376.1,2951.055a11.446,11.446,0,0,0-11.433,11.433,11.446,11.446,0,0,0,11.433,11.433,11.446,11.446,0,0,0,11.433-11.433A11.446,11.446,0,0,0-376.1,2951.055Zm0,18.419a6.986,6.986,0,0,1-6.986-6.986,6.986,6.986,0,0,1,6.986-6.986,6.986,6.986,0,0,1,6.986,6.986A6.986,6.986,0,0,1-376.1,2969.474Z" fill="#fff"/>
    <circle id="Ellipse_2" data-name="Ellipse 2" cx="2.74" cy="2.74" r="2.74" transform="translate(-367.387 2948.402)" fill="#fff"/>
  </g>
</svg>
