<svg xmlns="http://www.w3.org/2000/svg" width="44.274" height="35.973" viewBox="0 0 44.274 35.973">
  <path id="Path_21" data-name="Path 21" d="M-801.5,2948.727a18.913,18.913,0,0,1-5.23,1.433,9.021,9.021,0,0,0,3.993-5.017,18.131,18.131,0,0,1-5.755,2.2,9.1,9.1,0,0,0-6.63-2.872,9.074,9.074,0,0,0-9.071,9.079,9.374,9.374,0,0,0,.21,2.07,25.69,25.69,0,0,1-18.708-9.494,9.138,9.138,0,0,0-1.243,4.588,9.089,9.089,0,0,0,4.032,7.543,8.966,8.966,0,0,1-4.1-1.118v.1a9.118,9.118,0,0,0,7.272,8.918,9.064,9.064,0,0,1-2.38.3,8.019,8.019,0,0,1-1.718-.155,9.164,9.164,0,0,0,8.481,6.323,18.235,18.235,0,0,1-11.254,3.871,17.048,17.048,0,0,1-2.172-.124,25.561,25.561,0,0,0,13.924,4.073c16.7,0,25.834-13.836,25.834-25.829,0-.4-.014-.788-.033-1.173A18.11,18.11,0,0,0-801.5,2948.727Z" transform="translate(845.771 -2944.468)" fill="#fff"/>
</svg>
